<svg xmlns="http://www.w3.org/2000/svg" xmlns:xlink="http://www.w3.org/1999/xlink" width="2236" height="2554" version="1">
  <defs>
    <pattern xlink:href="#a" id="b" patternTransform="translate(693 -32) scale(.44588)"/>
    <pattern patternUnits="userSpaceOnUse" width="2149" height="1062" patternTransform="translate(-324 -55) scale(.26458)" id="a">
      <path d="M10 12h2128v1037H10zm0 0h2128v1037H10zm739 17l61-18m0 0l1-5m-82 0l20 23m1205-10l1-13M262 30l1-24m-1 24l12 32M1678 6l6 40m0 0l51 9M810 11l2 51m923-7l73-12m0 0l7-37M812 62l25 10m650-6l11-60M591 71l2-65M342 85l62-79M208 92l54-62m-54 62l15 10m0 0l51-40m0 0l22 34m0 0l21-90m432 23l22 57m0 0l41-24M342 85l39 43m0 0L423 6M148 6l25 82m0 0l35 4M1995 6l80 66M766 92l5-6m-601 7l3-5m793-51l11-31M837 72l109-14m0 0l20-21m300 20l25-51m-269 0l107 89m0 0l21-89m791 93l13-80M688 6l4 92m0 0l74-6M430 6l39 81m1018-21l97 31m-2-91l2 91M469 87l54 19m0 0l68-35M1889 6l8 102m0 0l44-9M296 96l9 18m0 0l37-29m1316 18l26-57m-418 11l51 82M304 117l1-3m286-43l55 44m938-18l10 14M1328 6l104 100m0 0l55-40M223 102l40 36m0 0l41-21m342-2l26 4m0 0l20-21m902 13l24 8m0 0l40-16M837 72l6 83m589-49v13M766 92l25 63m0 0h52m474-16l74 14m0 0l41-34m-1128-2l39 46m180-57l64 63m0 0l59-54M72 6l29 139m0 0l69-52m743 54l33-89m-103 97l23 11m0 0l47-19m745-44l87 51m-10-99l10 99m63-111l25 87m0 0l7 2m0 0l57-24M584 185l3-16m1253-37l12 19M522 192l1-86m-1 86l62-7M1954 19l132 101m-11-48l11 48M430 169l39-82m963 32l40 49m-31 44l31-44M244 183l19-45m80 25l56 16m-18-51l18 51m0 0l11 1m0 0l20-11m-71 55l40-45m1073-11l35 17m0 0l87-74m-681 36l42 55m790-48l20 16m0 0l68-40m-878 72l95-21M966 37l84 144m-546 30l18-19m-92-23l72 43m0 0l2-1m168-92l22 73m-450-9l55 36m0 0l44-56m1074 70l24-21m66-27l8 18M170 93l37 109m0 0l37-19m513 23l34-51m338-60l39 59m0 0l98-97M584 185l19 38m1154-30l8-23m-17 30l9-7M603 223l39 4m0 0l52-35m0 0l36 19m0 0l27-5m99 27l10-67m575 46l25 47m0 0l49-56m-349-38l2-11m189 73l34-74m-34 74l60 6m263-2l68-31M727 244l3-33M1941 99l114 70m-203-18l93 78m0 0l110-60M299 219l12 30m0 0l48-25m1259-105l16 109m0 0l46 3m-630-50l43 20m-336 5l65 46m0 0l34-19m237-32h25m0 0l48-36m-662 46l60 53m0 0l39-41m-426 11l30-32m911-1l3 23m934-55l46 1m-15-50l15 50m-421 61l23 66m-847-64l79 35m0 0l20-66m496 87l15-30m-15 30h73M61 216l40-71m1316 88l32 57m0 0l2-1m473-14l21-46m-1303-2l12 70m408 25l59-98m-59 98l15-2m447-31l45-24m-54-62l54 62m-915 32l43 6m0 0l30-59m394-20l15 67m600 20l12-111m-45 97l32 14m0 0h1m-659 9l41-6m0 0l18-23m433-26l19 6m0 0l46-43m-46 43l2 7m-454 13l24 22m-225-45l7 20m910-137l6 141m0 0l66-17M61 216l48 34m0 0l68-16m1559 77l86-16m-65-102l65 102m-520-30l15-126m-15 126l55-38m-191-62l135 101m0 0l1-1m288 13l68 53m0 0l45-34m-761-9l13 14m867-7l16 9m0 0l20-12m-903 10l37 10m0 0l101-111M935 338l20-36m74 36l33-16m-335-78l66 83m-96-24l27 36m0 0l69-12m1308-157l43 23M992 312l14 19m0 0l23 7m629-7l7 24m-872-28l18 2m0 0l11-77m-645-18l111 86m523 9l2 2m0 0l129-43m982-13l49 66m0 0l171-121M1077 320l20 47m0 0l21-53m547 41l65 12m0 0l5-56M136 343l152-23m872-7l5 63M132 342l4 1m-27-93l11 85m0 0l12 7m1033 34l15 6m468 2l17-29M288 320l16 8m0 0l7-79m-179 93l24 73m1004-102l145 4m-4-51l4 51m-309 81l10-67m23 7l61 47m0 0l7-18m-514-12l71-58m526 85l131-52m-6-13l6 13M85 382l35-47m463 20l81 41M85 382l12 26m567-12l34-1m0 0l26-56M410 180l23 162m0 0l69-130m809 118l5 9m-763 18l11-93m-11 93l30-2m413 43l32 28m-477-69h2m1283 27l2-80M136 343l92 66m131-185l73 126m0 0l1-8M79 459l18-51m993-23l9 22m0 0l66-31m-614-19l17 60m830-48l51-79m-514 48l9 88m0 0l52-28m809 3l31-17m-520-45l58 29m0 0l24 1M156 415l46 21m0 0l26-27m1502-42l31 44m0 0l44-10m-992-70l24 73m0 0l98-66m819 82l7-9m-924-2v-5m191 22h67m0 0l4-19m549-23l52 58m0 0l54-22M32 455l47 4m18-51l35 49m0 0l24-42m1161 61l38-22m0 0l19-86m-943 0l1-18m-1 18l120-11m1138 99l11-14m-141-23l31-141m-31 141l89-35M79 459l16 23m0 0l41-15m-4-10l4 10m1262-98l77 47m0 0l49-127m-429 137l8 22m-921 21l20-33m-66 31l6 4m0 0l40-2m1789-50l2-78M837 409l33 35m-172-49l48 56m0 0l91-42M4 409l81-27M4 438l28 17m272-127l39 60M139 496l3-25m86-62l114-20m0 0l1-1m1618 39l10-8M743 461l3-10m-3 10l33 36m-697 2l16-17m-63-27l44 45m0 0l3-1m264-111l64-1m0 0l24-19m810 95l75-124m-75 124l76 13m-447-32l51 14m0 0l23-32m51 60l33-60m808-42l98 53m0 0l27-10m-272 29l12 48M568 417l67 68m0 0l29-89m112 101h71m0 0l23-53m-144 37l17-20M79 499l18 24m0 0l42-27m1782-29l13-30M308 469l34-80m1348 136l11-21m-1152 3l19-90m67 68l3 13m0 0l88-17m337 25l40-58m490 32l96-24M182 469l29 44m0 0l97-44m99-82l31 81m0 0l111 39m1141 18l6 11m-701-50l65 23m0 0l3-3m638-2l68 11m-15-95l15 95m-233-66l23-30m-23 30l57 31m-672-22l27 38m0 0l47-10m-362 22l5-10m1048 59l10-21m-516-154l37 104m0 0l24-23m352 17l24 39m-142-103l40 38m0 0l21-5m81 70l13 13m0 0l60-7M549 507l16 21m790-74l20 75m-487 27l60-60m-69 60h9m-51-11l10-48m-10 48l42 11m-314-28l15 6m0 0l53-26m1245 18l43-59m-818-19l106 53m0 0l8-15m-329 70l12 17m905-172l27 134m0 0l46-9m0 0l16 25m27-84l57 99M139 496l6 62m918-52l96 44m537-14l41 31m241-1l43-11m-60-128l60 128m-1876 3l60-2m0 0l6-43m1810 42l8 3m-654-29l112-14m0 0l28-61m299 91l18-10m-932 38l74-7m-26-70l26 70m-666-97l3 88m1375 0l30 30m0 0l21-20M434 547l4-79m1273 121h3m0 0l2-2m53-72l22 34m0 0l23-4m-914 28l8 24m758-8h45m-53-4l28-28m-28 28l8 4m-890-92l32 68m0 0l29-20m1057 6l63 32m0 0l21-17m-491-51l2 14M311 557l58 17m0 0l65-27m1303 20l50-13m0 0l4-5M13 558l63-58m1554 32l13 52m0 0l15 1M13 558l100 17m-16-52l16 52m982 10l64-35M113 575l2 1m0 0l30-18m1014-8l54-15m-4-34l4 34M115 576v4m1098-45l105 29m-1-88l1 88m-410 33l24 13m-133-30l9-15m-175-57l53 78m980 3l17 39m0 0l28-39m-393-25l12 6m0 0l45-41m-443 81l54-21m-12-23l12 23m67-3l7-77m-7 77l42-1m-227 36l11-65m-11 65l40-24M726 481l1 106m0 0l72-7m-113 6l41 1m0 0l1 11m1086-53l39 83m-932 11l11-29m54-21l15 9m-567-51l36 47m0 0l95-66m1390 95l2-40m-916 14l12-11m-52 12l6 3m0 0l34-4m-571-3l2 6m858-30l10 32m-612-4l5 39m607-35l66 26m0 0l83-99m364 99l37 6m0 0l4-83m-973 88l15 21m0 0l65-62m-65 62h1m-465-60l25 24m0 0l96 1m-13-91l13 91m1310 19l52-21m-65 11l11 10m0 0h2m-581-5l18-37m474 54l39-28m-39 28l48 14m-1188-1l54-71M75 650l40-70m1207 59l2 6m683 4l22-91m-1824-2l47 58m0 0l59-57m1696 92l88-9M937 660l13 16m0 0l41-7m0 0l16-68m855 69l26 1m0 0l13-27m-577 1l2 27m629-49l45 32m0 0l7-6M616 638l70-52m-571-6l57 75m444-17l22 22m0 0l36 9m-81-44l14 12m0 0l9 1m710 34l5 11m-236-98l59 72m941-17l49-47m-115-35l115-13M799 580l42 72m0 0l27-31m-194 48l34 16m0 0l25-48m1351 51l11-48M708 685l1 4m1373 3l2-4m-595-159l54 111m0 0l74-121M75 650l30 32m0 0l67-27m669-3l1 8m0 0l79-21m120-42l40 83m0 0l73-23m436-4l53-69m260 60l49 61m-798-48l44 4m0 0l15-126m193 93l31 52m0 0l8 2m-247-21l3 5m389-13l104 30m-11-55l11 55m-493-17l17 10m0 0l104-37m630 66l43-7m0 0l5-43m-676-10l81 60m0 0l32-25m335 2l15-128m-15 128l42-26M384 687l88-87m1071 40l7 23m0 0l40-10M369 574l1 113m0 0h14m1166-23v-1m-618 61l18-48m-84 31l71-47m-765-5l76 14m0 0l4-55m584 80l6-34m-6 34l30 13m66 17l51 12m462-54l82 1m0 0l23-19m-219 19l54 48m0 0l20-26m118-2l4-20m-794-46l85 70m0 0l18-13m30 13l40 26m0 0l26-9m-261 19l38-54m274 47l32-4m0 0l6-3m-30-60l30 60m741-30l10-17m-10 17l100-29M810 717l8-10m-484-3l36-17m651 42l13 3m-473-1l46-94m-110-13l6 105m0 0l58 2m473 1l27-1m0 0l20-51M960 783l23-47m-345-76l22 91m0 0l11-8m38-54l74 47m0 0l27-19m-139 26l112-7m911-53l45 26m-25-120l25 120M248 669l14 30m0 0l72 5m323 52l3-5m1311-332l173 10m-405 280l4 3m0 0h11m0 0l8-13m-856 34l3 41m0 0l51 9m-576-96l96 56m0 0l23-14m715-53l44 73m0 0l64-77M97 754l8-72m1157 67l3 9M97 754l3 5m1895-61l40 56m0 0l47-62M334 704l35 82m896-28l49 17m0 0l17-92m-770 48l44 46m-19 20l19-20m355 6l17 30m0 0l38-81m-410 45h3m0 0l49-21m1425-64l62 56m-926 56l47-46m-204-27l52 54m922-31l4 26M465 800l15-57m-15 57l121-3m527-12l8 3m0 0l80-122M608 777l24 54M45 819l55-60m1980 38l64-18m-105 1l31 16m0 0l10 1m-636 17l1-132m639 6l60 28m-830 59l47 24m0 0l24-68m59 83l33 5m0 0l46-116M4 645l71 5M4 715l93 39m1657-42l102 75m0 0l32-116m-32 116l1 2m0 0l95-84m-402-41l106 146m0 0l87-98m-87 101v-3m-295-11l6 13m0 0l77 2m-323-26l29 35m0 0l68-19m-561-48l93 74m0 0l33-94m-414 50l86 43m0 0l10-29m1058-97l70 136m0 0l63-26m201-24l4 13M100 759l109 44m0 0l53-104m1818 98l44 88M750 830l1 8m1342 64l31-17M455 829l2 12m542 18l35-127m-35 127l114-74m-303-68l73 133m0 0l26-76m-700 29l2 15m1842 80l17-102M632 831l94 31m0 0l25-24m1302 60l19 7m0 0l21-3M71 890l140-72m766-5l10 59m0 0l12-13m718 25l144-82m-205 11l51 68m0 0l10 3m-166-14l42-31m-116-20l44 50m0 0l30 1M45 819l13 71m0 0h13M4 559l9-1m869 310l1-18m834 34l28 32M211 818l24 42m1260 45l26-36m-177 14l23-71m-485 56l101 14m0 0l4-10m-4 10l1 2m877-82l46 52m0 0l132-74m-652 139l108-14m-744-67l107 45m0 0l24-15m336-64l73 100m0 0l53-21m-642 29l24-50m-269-21l59 51m0 0l70-95m1417 125l50-24M235 860l55 28m0 0l79-102m775 113l6-76m194 60l30 36m0 0h13m-13 0l1 2m176-51l37 64m0 0l2 2m-319-14l20-18M185 937l50-77m1672-6l3 24m0 0l93 44M634 932l68-20m420 5l22-18M24 923l34-33m1086 9l80 36m0 0l47-13M185 937l51 52m1354-53l68 16m0 0l49-71m-723 3l123 42m0 0l15-9m468 19l14 60M598 929l34-98m-34 98l14 5m0 0l22-2m-296-13l119-78M229 998l7-9m54-101l29 28m0 0l19 3m880 58l6-42M71 890l88 72m0 0l26-25m1202-18l98 57m0 0l10-71m-651 48l14-70m800 69l9 31M516 892l19 40m0 0l63-3m1147-13l139 17m0 0l26-55m-581 126l46-83m628 1l30 60m-1797 7l57-9m0 0l26-64m1230 81l39-63m-39 63l55-1m-275 8l19 10m612-14h57m0 0l16-18m-815-5l55 42m-2 2l2-2m-2-97l32 83m0 0l26-1M153 984l6-22m1114 57l26-6m0 0l4-8m239 0l7-8m332-38l3-26m-3 26l79 41M153 984l23 26m0 0l53-12m405-66l62 86m133-39l15-26m-232-19l27 89m0 0l57-5m1337-36l61 13m-22-90l22 90M844 953l131 46m0 0l9-115M24 923l78 86m0 0l51-25m138 36l2-40m1714 58l10-38m-1385 35l7-12m965-27l24 32m0 0l39-45m-545-66l72 119m0 0l24-59m324 28l80 38m0 0l6-15m-280-14l73 10m-46-103l46 103m246-41l87 44m-9-111l9 111m-563 20l3-11m-3 11l80-26m-775-12l39-77m-39 77l136 26m851-6l2-53m-2 53l59-24m552-10l47 22m-48-115l48 115M702 912l75 116m0 0l52-49m-133 39l78 18m0 0l3-8m1183-28l11 54m27 0l9-16M229 998l19 56m26 0l17-34m1130 4l33 30m11 0l18-25M338 919l128 130m0 0l30-40m-205 11l142 34m33 0v-5m833-36l6 41m32 0l11-40m-519-35l115 75m31-55l18 55m761-27l21 27m64 0l42-95M4 806l41 13m131 191l21 44m879 0l31-128m900 112l66 16m68-37l3 2m-957 35l4-7m70 7l10-33m351 22l1 11m-991 0v-19m142 1l1 18M4 209l57 7M4 929l20-6m56 131l22-45m2022-124l20 8m-69-821l9-66" fill="none" stroke="#998975" stroke-width="15"/>
    </pattern>
  </defs>
  <path d="M0 1660V0h2236v1677c-915 383-1495 132-2236-17z" fill="#a2cfea"/>
  <path d="M2234 2550L0 2554v-579l2236 3v576z" fill="#eedac2"/>
  <path d="M1519 2012c-161 2-417-22-484-7-586-77-754 6-1035-50v-306s391 8 885 29c1045 697 291-84 1351-18v322s-478 27-717 30zM872 714C668 452 28 801 0 509V11h2236v912S1077 978 872 714z" fill="#95cdef"/>
  <g fill="#85b7d6">
    <path d="M1391 2004c-71 2-86-14-152-5-52 7-83-6-128-9-158 5-378 18-427 11-251-5-275-33-483-34-67-1-201 8-201 8v-282s1337 17 1737 10c169-49 499-10 499-10v285c-156 3-309 7-465 22-126 7-254 4-380 4z"/>
    <path d="M1607 1772c-21-11-1 11 0 0zm258 4c15-32 16-57-6-14-13-28-39 36 6 14zm86-8c-20-22-32 27 0 0zm-232-11c-3-13-18 8 0 0zm-1394-7c-18-21-9 12 0 0zm142-10c-9-25-23 12 0 0zm451-16c30-12-37 6 0 0zm-379-26c-6-9-6 9 0 0zm1338-48c-7-9-10 9 0 0z"/>
  </g>
  <path d="M1712 1700c3-1-60 0-170 3-343-3-685-7-1003-7v2c-4 4-5 0-4-2h-26c-129 2-509-3-509-3s256 21 301 57c44 35-185-32-12 81 49 32 166-29 223-9 45 3 83 16 126 18 46 2 93-6 139-7 240-1 396 258 718 26 18-91 57-13 124-27 235-21 182 153 440 0 51-42 120-30 177-42-3-32 0-97 0-97s-196-8-524 7zm-1177-4h4c-2-2-3-1-4 0zm250 10c46 0 108 10 133 6 73-4-17 56-51 49-45 7-102 4-133-32-3-18 20-23 51-23zm843 13s27-5 43 4c47-20 63 11 28 25-25 6-33-10-59-9-72 5-26-18-12-20zm-77 0c5 0 19 5 26 8 44 4 3 10-14 16-44 9-42-25-12-24z" fill="#75a5c4"/>
  <g fill="#998975">
    <path d="M1117 1882c-55-20-102-26-154-55-58-55-145-37-218-36-100 29-207 9-307-5-38-2-99 29-127-16 76-49 108-58 154-34 18-56 102-67 154-59 32-26 91 25 109 56 29 22 47 34 89 37 51 4 128-85 127-104 28-36 9-58 59-77 1-45 19-67 71-79 31-44 64-25 95-42 51-19 94-32 144-9 47 33 36 111 107 107 54 44 85 106 103 172 27 36 76-18 109 27 35-9 85 11 102-31 37-131 253-111 296-85l43 44c19 19 42 53 57 58 30 0 148-7 89 27-49 13-129 6-187 27-71 16-139 6-209 6-65-12-130-28-196-21-69-5-138 6-198 34-50 10-65 50-105 66-9 39-50-17-78 36-1 3-15-12-13-9-1-13-84-25-116-35z"/>
    <path d="M1843 1648l-8 43-19 42z"/>
  </g>
  <g fill="#515053">
    <path d="M534 1707c-4-11 29 15 28-15-2-30-28-2-38 10s-16 40-4 52c6 6 18 1 25-3 8-5 17-13 14-22-2-7-28 6-25-22z"/>
    <path d="M1240 1910c-17-41-140-21-129-67-5-39-31 39-44-19-21-40 74-92 32-111 0 0-56 24-42 84 0 67-56 32-80 12-122-18-29-49-34-55-16-8-4-48 25-36 57-76 42-151 111-159 10-18 157-35 93-47-32 11-71 62-65-11 47-29 115 12 134-46 49 0 84 35 82 49-4 52 19 48 87 79 45 6 92 119 103 149 59 47-88 96-104 77-25-6-51 71-90 70-8 51-30-43-55 15-5 10-21 24-24 16zm-37-191c-38 2-93 102-13 31 32-28-5 54 20 22 19-45 49-41-7-53zm106 59c46-4 62-34 108-29 37 4 26-108-11-99-46 12-4 95-63 81-33-7-40 29-61 44 5 9 18 4 27 3zm-300-6c2-43-68 21 0 0zm498 0c16-84-51 26 0 0zm-507-26c16-47-61 2 0 0zm64-29c20-28 25-47 3-76-22-28-49 87-3 76zm226-62c56-40 26-46 27-63-33-59-49 24-91 58-112 90 35 26 64 5zm-176 28c26-47 70-74 89-123 21-49-30 7-49 23s-50 45-52 76c-1 9 4 62 12 24zm-6-32c12-23 9 11 0 0zm12-15c4-12 9 4 0 0zm68 27c18-29-29 8 0 0zm-58-147c-3-9-6 9 0 0zm3-11c-4-10-7 12 0 0zm674 305c-24-51-132-1-151-37 38-10 109 26 92-45 17-42 49 6 17 26-3 45 61-5 22-25 14-70 14-29 29-68 57-27 45 39 43 65-3 27-41 57-58 59 36-14 63 35 6 25zm138-2c-2-26-2-25 10-43-9-21-21-81-36-35 28 27 13 71-11 80-43-34-66-27-24-67 39-31-47-95 22-89 35 25 84 15 124-5 43 44 25 27 20 51-2 45 198 79 120 83-77 4-138 22-148-9 23-16 26-55 5-76 31-50-83-20-34 12-15 34-48-40-27 25 20 30 29-48 43 2-43 18 16 72-39 69-7-2-21 13-25 2zm-26-103c-7-14-9 8 0 0zm-1334 94c-57-6-132-21-177-14-36 1-121 13-54-33 8-9 12 26 32-9 56-27 29 10 43 12 15 2 32-13 44-1 46-24-32 30 39 23 45-4 52-35 73-66 35-51 46 26 19 29-24 44 43 16 29 55-15 2-34 10-48 4zm-15-25c-7-15-15 19 0 0zm101 23c-49-19 40-32 6-52-33 26-43-10-41-45 2-51 72 15 72 35 31-20 51 59 92 44 32-8 108 4 36 8-56-7-111 18-165 10zm54-54c-24-15 14 18 0 0zm158 42c-5-12 15 2 0 0zm699 1c-14-42 86 8 0 0zm616-14c8-13 9 16 0 0zm-1704-2c-6-29 34 1 0 0zm1107-7c-78-25 69-7 0 0zm-1107-34c19-49 15 27 0 0zm214-11c-15-31 26 23 0 0zm1296-14c7-8 7 3 0 0zm-1052-11c-22-36 47-86 19-18 0 11-6 45-19 18zm44-76c15-54 26 7 0 0z"/>
  </g>
  <g fill="url(#a)" transform="translate(207 1006)">
    <path d="M1033 903c-64-25-152-38-141-59-31 8-19 31-32-26-21-40 51-74 32-111 0 0-27 25-42 84 5 64-59 37-80 12-141-23-71-45-34-56-33-2 4-58 26-43 57-76 41-144 110-151 5-21 143-34 93-47-31 35-80 51-64-11 27-30 113 9 132-48 47-20 85 37 84 51 15 32 18 47 86 79 43-14 89 107 104 152 69 59-95 96-105 73-20 14-51 73-90 70-7 52-31 14-55 16-24 15-21 23-24 15zm-37-190c-32 13-83 83-13 30 19-6-9 43 20 22 19-45 40-33-7-52zm106 59c41-17 69-50 109-30 12-26 7-66-12-98-25 30-25 113-63 81-26 12-25 32-60 44 5 8 15-1 26 3zm-299-7c-22-30-24-1 0 0zm-9-25c-10-19-15-5 0 0zm64-29c13-32 24-48 2-76s-36 83-2 76zm223-67c24-39 25-42 29-58-21-13-51 21-91 57-102 93 28 7 62 1zm-174 32c26-46 54-82 89-122 21-49-28 10-49 23-13 20-50 45-52 76-1 8 4 62 12 23zm-6-32c12-22 9 12 0 0zm13-15c4-11 8 5 0 0zm686 175c-24-51-133-1-151-37 37-12 85 25 92-45 26-43 50 7 18 25 7 36 45-18 22-25 13-69 6-29 28-68 57-26 56 37 55 65 1 28-46 67-70 60 37-14 64 35 6 25zm138-2c-2-27-2-26 11-43-10-21-15-74-37-36 28 28 14 72-11 81-51-25-73-34-24-68 27-33-47-98 22-89 35 23 84 16 124-4 43 43 41 31 20 51 8 41 198 77 120 82-57 5-137 23-148-9 23-16 16-49 5-75 20-44-55-34-34 11-47 38-48-40-26 25 20 31 28-47 42 2-43 19 16 73-39 70-7-3-21 13-25 2zM378 792c-59-5-131-13-177-13-36 0-124 14-53-33 6-15 13-7 31-9 37-29 47 8 56 6 15 1 30-14 42-2 47-24-37 26 34 20 46-4 44-50 74-72 47-34 46 43 19 46-25 44 36 15 23 53-15 3-35 10-49 4zm-15-24c-6-15-30 66 0 0zm93 22c-49-19 50-25 16-45-33 26-47-17-45-53 2-50 73 6 74 26 7 9 62 59 92 55 33-8 105 2 36 7-48-9-119 24-173 10zm220-11c-5-12 15 1 0 0zm700 0c-19-41 90 6 0 0zm22-19c-87-28 53-16 0 0zM287 722c19-48 16 27 0 0zm1510-24c20-17 8 3 0 0zM745 687c-27-32 49-90 19-19 2 12-6 59-19 19zm44-76c2-22-2 27 0 0z" fill="url(#b)"/>
    <path d="M327 701c22 4 27 15 28-15 1-34-31-3-41 9-9 12-17 35 0 52 5 7 16 4 25-3 6-5 15-12 13-21-2-14-28 5-25-22z"/>
  </g>
  <path fill="#998975" d="M1853 1656h14v81h-14zm-848 125l52 16 2 10-61-11z"/>
  <path d="M1257 1316c-2 13 3 44 6 131-7-40-14-131-6-131z" fill="#85b7d6"/>
  <path d="M1257 1316c25 10 49 13 49 13s-6 15-5 29l-41 2s4-28-3-44z" fill="#ffce00"/>
  <path d="M1257 1316c27 13 34 11 49 13l-3 5c-13 1-43-9-43-9 0-4 0 0-3-9zm3 36c29 8 41-1 41-1v7l-41 2v-8zm0-21c29 7 43 5 43 5l-1 6c-13 0-41-6-41-6l-1-5z" fill="#ff2a00"/>
  <path d="M1261 1339c28 8 41 6 41 6s0-5-1 3c-11 7-40-2-40-2v-7z" fill="#ff2a00"/>
</svg>
